<?xml version="1.0" encoding="UTF-8"?>
<svg width="64px" height="64px" viewBox="0 0 64 64" version="1.1" xmlns="http://www.w3.org/2000/svg" xmlns:xlink="http://www.w3.org/1999/xlink">
    <!-- Generator: Sketch 53.1 (72631) - https://sketchapp.com -->
    <title>Icons / Brain</title>
    <desc>Created with Sketch.</desc>
    <g id="Icons-/-Brain" stroke="none" stroke-width="1" fill="none" fill-rule="evenodd">
        <g transform="translate(5.000000, 2.000000)">
            <g>
                <g id="Lef-Brain" stroke="#F9BD60" stroke-width="2.18566656">
                    <path d="M26.7375371,49.4657531 L26.7375371,6.93669379 C26.7375371,4.26252818 25.1135891,1.85629941 22.6336164,0.855851061 L21.4894515,0.394282333 C19.233267,-0.515887377 16.6470463,0.202693606 15.1837858,2.14631046 L13.206146,4.77317299 C12.8922961,5.19005297 12.4396549,5.48089167 11.9300498,5.5931119 C9.99679804,6.01883363 8.82153938,6.65995921 8.40427383,7.51648861 C8.0123741,8.32094909 7.70954351,9.49808877 7.49578206,11.0479077 L7.49578211,11.0479077 C7.41128172,11.6605546 7.07119174,12.2087256 6.55981642,12.5565357 C4.45683565,13.9868704 3.24116311,15.3001295 2.91279882,16.496313 C2.59822574,17.6422571 2.6936685,19.2271003 3.19912708,21.2508425 L3.19911523,21.2508455 C3.36936273,21.9324781 3.20155986,22.6543963 2.74813092,23.1910614 C1.04556353,25.2061698 0.153527555,26.8505416 0.0720229901,28.1241768 C-0.0119442823,29.4362956 0.358902702,31.3266663 1.18456394,33.7952889 L1.18455128,33.7952931 C1.35390766,34.3016472 1.33205913,34.8524798 1.12312927,35.3438294 C0.184767318,37.5506167 -0.165601441,39.1793339 0.0720229901,40.229981 C0.29718855,41.2255418 1.01899106,42.3806385 2.23743052,43.6952712 L2.23741874,43.6952821 C2.65267221,44.1433189 2.8614723,44.7446932 2.81321664,45.3536627 C2.60958616,47.9234082 2.99292729,49.776996 3.96324002,50.9144261 C4.97753507,52.1034136 6.99941099,53.0620787 10.0288678,53.7904213 L10.0288726,53.7904011 C10.4647014,53.8951831 10.8577756,54.1314317 11.1548194,54.4671265 C13.7422992,57.3912861 15.9121883,58.8300555 17.6644869,58.7834346 C17.6644869,58.7834346 17.6644869,58.7834346 17.6644869,58.7834346 L17.6644869,58.7834346 C22.7139757,58.6490901 26.7375633,54.5170288 26.7375633,49.4657531 Z" id="Path" fill="#FEE7C3"></path>
                    <path d="M10.1136251,18.5131611 C10.0342034,19.6592303 10.1961701,20.7418659 10.5995253,21.761068 C11.204558,23.2898713 11.6404702,24.6932694 13.3687685,25.4778214 C15.0970669,26.2623735 16.8618557,26.2743615 18.3799515,26.0180727 C19.3920153,25.8472135 20.7235557,25.3404192 22.3745729,24.4976898" id="Path-2" stroke-linecap="round"></path>
                    <path d="M7.8143,11.7677674 C8.97729246,10.8866594 10.828782,11.0761739 13.3687685,12.3363111 C15.9087551,13.5964482 17.2335758,15.9750357 17.3432306,19.4720734" id="Path-3" stroke-linecap="round"></path>
                    <path d="M0.757027941,31.8376484 C2.17398699,34.2291549 3.28253182,35.5661415 4.08266243,35.8486083 C4.57772313,36.0233775 5.2518299,36.4343165 6.21661355,36.5793001 C6.61296424,36.638862 7.31528079,36.638862 8.3235632,36.5793001" id="Path-4" stroke-linecap="round"></path>
                    <path d="M9.40244092,46.0254259 C11.8980254,46.0254259 13.852209,46.7696779 15.2649917,48.2581821 C16.6777744,49.7466862 17.2127962,51.8615051 16.8700573,54.6026386" id="Path-5" stroke-linecap="round"></path>
                    <path d="M10.7721978,41.8675524 C11.7775759,40.1146942 13.0941074,38.7967398 14.7217922,37.9136893 C16.349477,37.0306388 18.2546928,36.6007328 20.4374398,36.6239715" id="Path-6" stroke-linecap="round"></path>
                    <path d="M16.9704292,26.1670388 C16.7212329,28.0009968 16.2660294,29.2660358 15.6048188,29.9621558 C14.9436082,30.6582758 13.7550971,31.1013711 12.0392853,31.2914416" id="Path-7" stroke-linecap="round"></path>
                    <path d="M26.7375371,48.3023052 C25.1033791,45.4388345 23.6490577,43.6197257 22.3745729,42.8449788 C21.100088,42.0702319 19.6971654,42.0702319 18.165805,42.8449788" id="Path-8" stroke-linecap="round"></path>
                    <path d="M13.7607313,4.45098822 C14.8090868,4.38837405 15.6336097,4.53016814 16.2342997,4.87637048 C16.8349898,5.22257282 17.2046334,5.9050607 17.3432306,6.92383412" id="Path-9" stroke-linecap="round"></path>
                    <path d="M26.7375371,19.4720734 C26.3625376,18.5407792 25.8470844,17.8852951 25.1911776,17.505621 C24.5352709,17.125947 23.5964026,16.9395919 22.3745729,16.9465556" id="Path-10" stroke-linecap="round"></path>
                </g>
                <g id="Right-Brain" transform="translate(38.837537, 30.088758) scale(-1, 1) translate(-38.837537, -30.088758) translate(24.537537, 0.195901)" stroke="#F9BD60" stroke-width="2.18566656">
                    <path d="M26.7375371,49.4657531 L26.7375371,6.93669379 C26.7375371,4.26252818 25.1135891,1.85629941 22.6336164,0.855851061 L21.4894515,0.394282333 C19.233267,-0.515887377 16.6470463,0.202693606 15.1837858,2.14631046 L13.206146,4.77317299 C12.8922961,5.19005297 12.4396549,5.48089167 11.9300498,5.5931119 C9.99679804,6.01883363 8.82153938,6.65995921 8.40427383,7.51648861 C8.0123741,8.32094909 7.70954351,9.49808877 7.49578206,11.0479077 L7.49578211,11.0479077 C7.41128172,11.6605546 7.07119174,12.2087256 6.55981642,12.5565357 C4.45683565,13.9868704 3.24116311,15.3001295 2.91279882,16.496313 C2.59822574,17.6422571 2.6936685,19.2271003 3.19912708,21.2508425 L3.19911523,21.2508455 C3.36936273,21.9324781 3.20155986,22.6543963 2.74813092,23.1910614 C1.04556353,25.2061698 0.153527555,26.8505416 0.0720229901,28.1241768 C-0.0119442823,29.4362956 0.358902702,31.3266663 1.18456394,33.7952889 L1.18455128,33.7952931 C1.35390766,34.3016472 1.33205913,34.8524798 1.12312927,35.3438294 C0.184767318,37.5506167 -0.165601441,39.1793339 0.0720229901,40.229981 C0.29718855,41.2255418 1.01899106,42.3806385 2.23743052,43.6952712 L2.23741874,43.6952821 C2.65267221,44.1433189 2.8614723,44.7446932 2.81321664,45.3536627 C2.60958616,47.9234082 2.99292729,49.776996 3.96324002,50.9144261 C4.97753507,52.1034136 6.99941099,53.0620787 10.0288678,53.7904213 L10.0288726,53.7904011 C10.4647014,53.8951831 10.8577756,54.1314317 11.1548194,54.4671265 C13.7422992,57.3912861 15.9121883,58.8300555 17.6644869,58.7834346 C17.6644869,58.7834346 17.6644869,58.7834346 17.6644869,58.7834346 L17.6644869,58.7834346 C22.7139757,58.6490901 26.7375633,54.5170288 26.7375633,49.4657531 Z" id="Path" fill="#FEE7C3"></path>
                    <path d="M10.1136251,18.5131611 C10.0342034,19.6592303 10.1961701,20.7418659 10.5995253,21.761068 C11.204558,23.2898713 11.6404702,24.6932694 13.3687685,25.4778214 C15.0970669,26.2623735 16.8618557,26.2743615 18.3799515,26.0180727 C19.3920153,25.8472135 20.7235557,25.3404192 22.3745729,24.4976898" id="Path-2" stroke-linecap="round"></path>
                    <path d="M7.8143,11.7677674 C8.97729246,10.8866594 10.828782,11.0761739 13.3687685,12.3363111 C15.9087551,13.5964482 17.2335758,15.9750357 17.3432306,19.4720734" id="Path-3" stroke-linecap="round"></path>
                    <path d="M0.757027941,31.8376484 C2.17398699,34.2291549 3.28253182,35.5661415 4.08266243,35.8486083 C4.57772313,36.0233775 5.2518299,36.4343165 6.21661355,36.5793001 C6.61296424,36.638862 7.31528079,36.638862 8.3235632,36.5793001" id="Path-4" stroke-linecap="round"></path>
                    <path d="M9.40244092,46.0254259 C11.8980254,46.0254259 13.852209,46.7696779 15.2649917,48.2581821 C16.6777744,49.7466862 17.2127962,51.8615051 16.8700573,54.6026386" id="Path-5" stroke-linecap="round"></path>
                    <path d="M10.7721978,41.8675524 C11.7775759,40.1146942 13.0941074,38.7967398 14.7217922,37.9136893 C16.349477,37.0306388 18.2546928,36.6007328 20.4374398,36.6239715" id="Path-6" stroke-linecap="round"></path>
                    <path d="M16.9704292,26.1670388 C16.7212329,28.0009968 16.2660294,29.2660358 15.6048188,29.9621558 C14.9436082,30.6582758 13.7550971,31.1013711 12.0392853,31.2914416" id="Path-7" stroke-linecap="round"></path>
                    <path d="M26.7375371,48.3023052 C25.1033791,45.4388345 23.6490577,43.6197257 22.3745729,42.8449788 C21.100088,42.0702319 19.6971654,42.0702319 18.165805,42.8449788" id="Path-8" stroke-linecap="round"></path>
                    <path d="M13.7607313,4.45098822 C14.8090868,4.38837405 15.6336097,4.53016814 16.2342997,4.87637048 C16.8349898,5.22257282 17.2046334,5.9050607 17.3432306,6.92383412" id="Path-9" stroke-linecap="round"></path>
                    <path d="M26.7375371,19.4720734 C26.3625376,18.5407792 25.8470844,17.8852951 25.1911776,17.505621 C24.5352709,17.125947 23.5964026,16.9395919 22.3745729,16.9465556" id="Path-10" stroke-linecap="round"></path>
                </g>
                <g id="Icons-/-Controller--Copy" transform="translate(17.600000, 19.928571)">
                    <g id="Chip-Connectors" transform="translate(4.950000, 0.000000)" stroke="#2C3E50" stroke-linecap="round" stroke-width="1.1">
                        <path d="M0.380769231,0.415178571 L0.380769231,2.90625" id="Line"></path>
                        <path d="M2.66538462,0.415178571 L2.66538462,2.90625" id="Line-Copy"></path>
                        <path d="M4.95,0.415178571 L4.95,2.90625" id="Line-Copy-2"></path>
                        <path d="M7.23461538,0.415178571 L7.23461538,2.90625" id="Line-Copy-3"></path>
                        <path d="M9.51923077,0.415178571 L9.51923077,2.90625" id="Line-Copy-4"></path>
                    </g>
                    <g id="Chip-Connectors-Copy" transform="translate(17.346154, 10.933036) rotate(90.000000) translate(-17.346154, -10.933036) translate(11.846154, 8.718750)" stroke="#2C3E50" stroke-linecap="round" stroke-width="1.1">
                        <path d="M0.380769231,0.415178571 L0.380769231,2.90625" id="Line"></path>
                        <path d="M2.66538462,0.415178571 L2.66538462,2.90625" id="Line-Copy"></path>
                        <path d="M4.95,0.415178571 L4.95,2.90625" id="Line-Copy-2"></path>
                        <path d="M7.23461538,0.415178571 L7.23461538,2.90625" id="Line-Copy-3"></path>
                        <path d="M9.51923077,0.415178571 L9.51923077,2.90625" id="Line-Copy-4"></path>
                    </g>
                    <g id="Chip-Connectors-Copy-2" transform="translate(9.900000, 18.267857) rotate(180.000000) translate(-9.900000, -18.267857) translate(4.950000, 16.607143)" stroke="#2C3E50" stroke-linecap="round" stroke-width="1.1">
                        <path d="M0.380769231,0.415178571 L0.380769231,2.90625" id="Line"></path>
                        <path d="M2.66538462,0.415178571 L2.66538462,2.90625" id="Line-Copy"></path>
                        <path d="M4.95,0.415178571 L4.95,2.90625" id="Line-Copy-2"></path>
                        <path d="M7.23461538,0.415178571 L7.23461538,2.90625" id="Line-Copy-3"></path>
                        <path d="M9.51923077,0.415178571 L9.51923077,2.90625" id="Line-Copy-4"></path>
                    </g>
                    <g id="Chip-Connectors-Copy-3" transform="translate(1.903846, 10.379464) rotate(270.000000) translate(-1.903846, -10.379464) translate(-3.046154, 8.718750)" stroke="#2C3E50" stroke-linecap="round" stroke-width="1.1">
                        <path d="M0.380769231,0.415178571 L0.380769231,2.90625" id="Line"></path>
                        <path d="M2.66538462,0.415178571 L2.66538462,2.90625" id="Line-Copy"></path>
                        <path d="M4.95,0.415178571 L4.95,2.90625" id="Line-Copy-2"></path>
                        <path d="M7.23461538,0.415178571 L7.23461538,2.90625" id="Line-Copy-3"></path>
                        <path d="M9.51923077,0.415178571 L9.51923077,2.90625" id="Line-Copy-4"></path>
                    </g>
                    <rect id="Rectangle" fill="#2C3E50" x="2.66538462" y="2.07589286" width="14.4692308" height="15.7767857" rx="0.786839962"></rect>
                    <ellipse id="Oval" fill="#F9BD60" cx="4.95" cy="4.15178571" rx="1" ry="1"></ellipse>
                </g>
            </g>
        </g>
    </g>
</svg>