<?xml version="1.0" encoding="UTF-8"?>
<svg width="64px" height="64px" viewBox="0 0 64 64" version="1.1" xmlns="http://www.w3.org/2000/svg" xmlns:xlink="http://www.w3.org/1999/xlink">
    <!-- Generator: Sketch 53.1 (72631) - https://sketchapp.com -->
    <title>Icons / Customize</title>
    <desc>Created with Sketch.</desc>
    <g id="Icons-/-Customize" stroke="none" stroke-width="1" fill="none" fill-rule="evenodd">
        <g transform="translate(2.000000, 2.000000)" id="Tools-Copy">
            <g>
                <path d="M11.1581706,42.4439146 L42.3050763,11.7585234 C44.8835647,9.22218396 48.9543368,9.02313155 51.7679761,11.295807 C54.2859473,13.7726184 54.3193139,17.8216897 51.8425025,20.3396608 C51.8178655,20.3647072 51.7930225,20.3895502 51.7679761,20.4141872 L20.1819384,51.4839124 C18.8037537,52.8395687 16.5930712,52.8395687 15.2148865,51.4839124 L11.1581706,47.4935092 C9.7637636,46.1218957 9.74528579,43.879593 11.1168993,42.4851859 C11.1305428,42.4713157 11.1443004,42.4575581 11.1581706,42.4439146 Z M7.56263807,46.8868727 L15.5923813,55.3419754 L9.0807872,57.6472291 L5.42124937,53.8366696 L7.56263807,46.8868727 Z M4.39454793,56.0266101 L6.76766853,58.8669362 L3.15789474,60 L4.39454793,56.0266101 Z" id="Combined-Shape" fill="#F9BD60" transform="translate(28.421053, 34.736842) rotate(90.000000) translate(-28.421053, -34.736842) "></path>
                <path d="M26.9372967,26.1903339 C24.0217767,19.9809615 25.1334926,12.3453668 30.2696337,7.20871009 C35.3922124,2.08561723 43.0002994,0.966125732 49.2001379,3.85302425 L39.87362,12.1004926 C38.4891785,13.3247584 37.6651883,15.7810309 38.0262697,17.5928474 L38.5121214,20.0307312 C38.7533695,21.241254 39.9217849,22.4040597 41.1250343,22.6439063 L43.5626735,23.1298069 C45.3761502,23.4912917 47.8330722,22.6637546 49.0544769,21.2822712 L57.3011174,11.954817 C60.1877261,18.1552778 59.0683471,25.7641286 53.9457684,30.8872215 C48.8096359,36.0238696 41.1748247,37.135702 34.9660813,34.2199077 C34.806772,34.4352206 34.6328579,34.6428148 34.444327,34.8412737 L13.4031944,56.990431 C10.9199145,59.6044803 6.8401897,59.6567498 4.29643318,57.1127379 L4.04674968,56.8630293 C1.50050424,54.3165283 1.55962311,50.234735 4.16904427,47.755354 L26.3159784,26.7121091 C26.5144536,26.5235248 26.7220312,26.3496092 26.9372967,26.1903339 Z" id="Shape" fill="#FEE7C3" fill-rule="nonzero"></path>
            </g>
        </g>
    </g>
</svg>