<?xml version="1.0" encoding="UTF-8"?>
<svg width="64px" height="64px" viewBox="0 0 64 64" version="1.1" xmlns="http://www.w3.org/2000/svg" xmlns:xlink="http://www.w3.org/1999/xlink">
    <!-- Generator: Sketch 53.1 (72631) - https://sketchapp.com -->
    <title>Icons / Enclosure</title>
    <desc>Created with Sketch.</desc>
    <g id="Icons-/-Enclosure" stroke="none" stroke-width="1" fill="none" fill-rule="evenodd">
        <g transform="translate(5.000000, 5.000000)" id="Group">
            <g transform="translate(-0.000000, -0.000000)">
                <path d="M26.714832,0.0655056809 L0.22451471,11.7645184 C0.0880437763,11.8247885 -1.1138682e-17,11.9599192 -7.21644966e-16,12.1091063 L1.55431223e-15,42.6490478 C1.57281699e-15,42.8001506 0.0902906696,42.9366308 0.229355258,42.9957332 L26.7065716,54.2485341 C26.8061209,54.2908425 26.9190537,54.2883159 27.0166112,54.2415977 L53.512318,41.5533679 C53.6430933,41.4907424 53.7263158,41.3586161 53.7263158,41.213619 L53.7263158,11.51544 C53.7263158,11.3636798 53.6352479,11.2267401 53.4952951,11.1680515 L27.0126892,0.0627052014 C26.9172354,0.0226771125 26.8095164,0.0236898959 26.714832,0.0655056809 Z" id="Path-2" fill="#F5D7A9"></path>
                <path d="M0.818275004,11.6425576 L26.7153779,22.6875538 C26.8097841,22.7278176 26.9165317,22.7278176 27.0109379,22.6875538 L52.9080408,11.6425576 C53.0994066,11.560941 53.1883759,11.339645 53.1067592,11.1482792 C53.0683697,11.0582676 52.9964596,10.9867275 52.9062511,10.9488029 L27.0091483,0.061375955 C26.9157792,0.0221225819 26.8105366,0.0221225819 26.7171675,0.061375955 L0.820064653,10.9488029 C0.628280299,11.0294311 0.538170475,11.2502652 0.618798727,11.4420495 C0.656723353,11.532258 0.728263415,11.6041681 0.818275004,11.6425576 Z" id="Path-3" fill="#FEE7C3"></path>
                <path d="M26.8631579,23.0043727 L26.8631579,53.7047122 C26.8631579,53.9127558 27.0318106,54.0814085 27.2398542,54.0814085 C27.2984956,54.0814085 27.3563271,54.0677177 27.4087443,54.0414261 L43.4679224,45.9864091 L53.5185096,40.9452016 C53.6458939,40.8813077 53.7263158,40.7509979 53.7263158,40.6084877 L53.7263158,12.4227926 C53.7263158,12.214749 53.5576631,12.0460963 53.3496195,12.0460963 C53.3011214,12.0460963 53.2530796,12.0554614 53.2081325,12.0736772 L27.0983672,22.6552573 C26.9561898,22.712878 26.8631579,22.8509629 26.8631579,23.0043727 Z" id="Path-4" fill="#F9BD60"></path>
                <path d="M3.70526316,38.5561521 L8.04736842,40.0035205" id="Path" stroke="#2C3E50" stroke-width="3.7669632" stroke-linecap="round"></path>
                <path d="M18.1789474,44.3456257 L22.5210526,45.7929942" id="Path-Copy" stroke="#2C3E50" stroke-width="3.7669632" stroke-linecap="round"></path>
                <circle id="Oval" fill="#FEE7C3" cx="39.8894737" cy="42.8982573" r="1.44736842"></circle>
                <circle id="Oval-Copy-2" fill="#FEE7C3" cx="34.1" cy="45.7929942" r="1.44736842"></circle>
                <circle id="Oval-Copy" fill="#FEE7C3" cx="47.7631579" cy="39.0789474" r="1.44736842"></circle>
            </g>
        </g>
    </g>
</svg>