<?xml version="1.0" encoding="UTF-8"?>
<svg width="126px" height="96px" viewBox="0 0 126 96" version="1.1" xmlns="http://www.w3.org/2000/svg" xmlns:xlink="http://www.w3.org/1999/xlink">
    <!-- Generator: Sketch 53.1 (72631) - https://sketchapp.com -->
    <title>Group</title>
    <desc>Created with Sketch.</desc>
    <g id="Symbols" stroke="none" stroke-width="1" fill="none" fill-rule="evenodd">
        <g id="UI-/-Landing-Page-/-Line-Icons" transform="translate(-1.000000, -16.000000)">
            <g id="Group" transform="translate(1.000000, 16.000000)">
                <rect id="Rectangle" stroke="#2C3E50" stroke-width="1.1088" x="61.1034956" y="7.28437033" width="6.56257863" height="27.2131585"></rect>
                <rect id="Rectangle" fill="#2C3E50" x="44.9323605" y="69.2626113" width="2.46580027" height="2.52373887"></rect>
                <rect id="Rectangle" stroke="#2C3E50" stroke-width="1.1088" x="101.652211" y="2.51730801" width="8.75440109" height="4.77992404"></rect>
                <rect id="Rectangle-Copy-7" fill="#2C3E50" x="55.3435173" y="69.2626113" width="2.46580027" height="2.52373887"></rect>
                <rect id="Rectangle-Copy-9" fill="#2C3E50" x="65.754674" y="69.2626113" width="2.46580027" height="2.52373887"></rect>
                <rect id="Rectangle-Copy-11" fill="#2C3E50" x="76.1658307" y="69.2626113" width="2.46580027" height="2.52373887"></rect>
                <rect id="Rectangle-Copy-13" fill="#2C3E50" x="86.5769874" y="69.2626113" width="2.46580027" height="2.52373887"></rect>
                <rect id="Rectangle-Copy-15" fill="#2C3E50" x="96.9881441" y="69.2626113" width="2.46580027" height="2.52373887"></rect>
                <rect id="Rectangle-Copy-6" fill="#2C3E50" x="50.1379389" y="69.2626113" width="2.46580027" height="2.52373887"></rect>
                <rect id="Rectangle-Copy-8" fill="#2C3E50" x="60.5490956" y="69.2626113" width="2.46580027" height="2.52373887"></rect>
                <rect id="Rectangle-Copy-10" fill="#2C3E50" x="70.9602523" y="69.2626113" width="2.46580027" height="2.52373887"></rect>
                <rect id="Rectangle-Copy-12" fill="#2C3E50" x="81.371409" y="69.2626113" width="2.46580027" height="2.52373887"></rect>
                <rect id="Rectangle-Copy-14" fill="#2C3E50" x="91.7825657" y="69.2626113" width="2.46580027" height="2.52373887"></rect>
                <rect id="Rectangle-Copy-16" fill="#2C3E50" x="102.193722" y="69.2626113" width="2.46580027" height="2.52373887"></rect>
                <path d="M6.5754674,89.3123145 L125.070869,89.3123145" id="Line-7" stroke="#2C3E50" stroke-width="1.1088" stroke-linecap="square"></path>
                <rect id="Rectangle" stroke="#2C3E50" stroke-width="1.1088" x="0.5544" y="63.3674564" width="21.0834025" height="19.3615264"></rect>
                <rect id="Rectangle" fill="#2C3E50" x="4.65762274" y="67.8605341" width="2.46580027" height="2.52373887"></rect>
                <rect id="Rectangle-Copy-5" fill="#2C3E50" x="4.65762274" y="71.7863501" width="2.46580027" height="2.52373887"></rect>
                <rect id="Rectangle-Copy" stroke="#2C3E50" stroke-width="1.1088" x="0.5544" y="38.4104831" width="21.0834025" height="19.3615264"></rect>
                <rect id="Rectangle" fill="#2C3E50" x="4.65762274" y="46.5489614" width="2.46580027" height="2.8041543"></rect>
                <rect id="Rectangle" fill="#2C3E50" x="4.65762274" y="42.6231454" width="2.46580027" height="2.52373887"></rect>
                <path d="M42.877527,23.6951039 L55.4805062,23.6951039" id="Line-5" stroke="#2C3E50" stroke-width="1.1088" stroke-linecap="square"></path>
                <path d="M113.837779,61.2707715 L121.646147,61.2707715" id="Line-6" stroke="#2C3E50" stroke-width="1.1088" stroke-linecap="square"></path>
                <rect id="Rectangle" stroke="#2C3E50" stroke-width="1.1088" x="0.5544" y="10.0885246" width="24.3711362" height="22.4460961"></rect>
                <rect id="Rectangle" stroke="#2C3E50" stroke-width="1.1088" x="75.3503416" y="32.5217591" width="27.3848921" height="28.0544047" rx="2.66112"></rect>
                <rect id="Rectangle-Copy-3" stroke="#2C3E50" stroke-width="1.1088" x="75.3503416" y="32.5217591" width="27.3848921" height="22.7265116" rx="2.66112"></rect>
                <rect id="Rectangle" stroke="#2C3E50" stroke-width="1.1088" x="32.6098036" y="40.3733911" width="16.1518019" height="20.2027727" rx="2.66112"></rect>
                <rect id="Rectangle-Copy-18" stroke="#2C3E50" stroke-width="1.1088" x="100.830278" y="12.3318481" width="16.1518019" height="16.8377875" rx="2.66112"></rect>
                <rect id="Rectangle-Copy-2" stroke="#2C3E50" stroke-width="1.1088" x="32.6098036" y="40.3733911" width="16.1518019" height="14.8748795" rx="2.66112"></rect>
                <rect id="Rectangle-Copy-17" stroke="#2C3E50" stroke-width="1.1088" x="100.830278" y="12.0514326" width="16.1518019" height="12.0707252" rx="2.66112"></rect>
                <path d="M41.370649,74.0296736 L109.043168,74.0296736" id="Line" stroke="#2C3E50" stroke-width="1.1088" stroke-linecap="square"></path>
                <path d="M0.68494452,77.8152819 L21.5072579,77.8152819" id="Line-2" stroke="#2C3E50" stroke-width="1.1088" stroke-linecap="square"></path>
                <path d="M0.68494452,52.8583086 L21.5072579,52.8583086" id="Line-3" stroke="#2C3E50" stroke-width="1.1088" stroke-linecap="square"></path>
                <path d="M0.68494452,25.3775964 L24.5210138,25.3775964" id="Line-4" stroke="#2C3E50" stroke-width="1.1088" stroke-linecap="square"></path>
                <rect id="Rectangle" stroke="#2C3E50" stroke-width="1.1088" x="113.707235" y="34.7650825" width="7.93246767" height="31.4193899"></rect>
                <rect id="Rectangle" stroke="#2C3E50" stroke-width="1.1088" x="41.3770934" y="65.3303644" width="67.6596299" height="17.3986184"></rect>
                <rect id="Rectangle" stroke="#2C3E50" stroke-width="1.1088" x="42.7469825" y="4.48021602" width="12.5900904" height="23.5677579"></rect>
                <rect id="Rectangle" stroke="#2C3E50" stroke-width="1.1088" x="44.9388049" y="1.39564629" width="8.20644548" height="2.81701602"></rect>
                <rect id="Rectangle" stroke="#2C3E50" stroke-width="1.1088" x="76.9942085" y="0.5544" width="17.521691" height="20.2027727"></rect>
                <rect id="Rectangle" fill="#2C3E50" x="81.0974312" y="5.32789318" width="2.73977808" height="2.52373887"></rect>
                <rect id="Rectangle-Copy-4" fill="#2C3E50" x="87.6728986" y="5.32789318" width="2.73977808" height="2.52373887"></rect>
                <polyline id="Path-4" stroke="#2C3E50" stroke-width="1.44" points="5.89052288 10.6557864 5.89052288 3.92581602 44.3844049 3.92581602"></polyline>
                <path d="M95.0702994,4.76706231 L101.097811,4.76706231" id="Path-5" stroke="#2C3E50" stroke-width="1.44"></path>
                <polyline id="Path-6" stroke="#2C3E50" stroke-width="1.44" points="110.961012 4.76706231 125.070869 4.90727003 125.070869 89.3123145 6.5754674 89.3123145 6.5754674 83.2833828"></polyline>
                <path d="M6.5754674,62.8130564 L6.5754674,57.6897613" id="Path-7" stroke="#2C3E50" stroke-width="1.44"></path>
                <path d="M6.65766074,37.7826409 L6.65766074,33" id="Path-8" stroke="#2C3E50" stroke-width="1.44"></path>
                <path d="M125.070869,89.3123145 L125.070869,95.2696411" id="Path-9" stroke="#2C3E50" stroke-width="1.44"></path>
                <polyline id="Path-10" stroke="#2C3E50" stroke-width="1.44" points="125.070869 94.5 6.5754674 94.5 6.5754674 88.3845025"></polyline>
                <path d="M53.6996504,3.92581602 L76.4398085,3.92581602" id="Path-11" stroke="#2C3E50" stroke-width="1.44" fill="#07889B"></path>
            </g>
        </g>
    </g>
</svg>